<?xml version="1.0" standalone="no"?>
<!DOCTYPE svg PUBLIC "-//W3C//DTD SVG 20010904//EN"
 "http://www.w3.org/TR/2001/REC-SVG-20010904/DTD/svg10.dtd">
<svg version="1.0" xmlns="http://www.w3.org/2000/svg"
 width="128.000000pt" height="128.000000pt" viewBox="0 0 128.000000 128.000000"
 preserveAspectRatio="xMidYMid meet">

<g transform="translate(0.000000,128.000000) scale(0.100000,-0.100000)"
fill="#000000" stroke="none">
<path d="M835 1263 c-95 -34 -165 -104 -206 -203 -19 -47 -23 -78 -27 -217
l-4 -163 -272 0 c-198 0 -275 -3 -284 -12 -17 -17 -17 -639 0 -656 9 -9 115
-12 414 -12 353 0 405 2 418 16 14 13 16 57 16 324 0 349 2 340 -76 340 l-44
0 0 138 c0 111 4 145 19 177 22 50 71 92 115 101 50 9 117 -24 147 -72 23 -37
24 -50 29 -229 l5 -190 83 -3 83 -3 -3 208 -3 208 -31 65 c-17 36 -48 82 -70
104 -82 81 -211 114 -309 79z"/>
</g>
</svg>
